#!OML:ASF H:\Punching\Project 1\Capture day 1\Session 1\female.ASF
:FULLY-SPECIFIED
:DEGREES
1797
root 2.03853 14.3591 -0.288904 19.8834 14.5554 7.39413
lowerback -1.81733 -3.28574 1.66696
upperback -8.01387 -4.27755 1.328
thorax -7.36455 -2.17635 0.659112
lowerneck -11.9256 5.65147 8.26353
upperneck 30.3234 11.552 -16.2042
head 13.7911 4.19045 -6.11345
rclavicle 4.6118e-014 1.27222e-014
rhumerus 24.8027 17.8244 -57.9253
rradius 125.737
rwrist -21.1084
rhand -29.4943 4.95967
rfingers 7.12502
rthumb -2.82908 -25.0013
lclavicle 4.6118e-014 1.27222e-014
lhumerus 2.98557 -18.8253 75.7373
lradius 135.953
lwrist 0.962078
lhand -25.2141 -8.36977
lfingers 7.12502
lthumb 1.30475 21.606
rfemur -61.6496 -15.7601 15.511
rtibia 62.418
rfoot -16.773 -14.9839
rtoes 12.207
lfemur -181.229 194.574 -193.025
ltibia 22.9592
lfoot -28.4764 22.292
ltoes -14.6272
1798
root 2.09852 14.3547 -0.363556 19.7367 15.0848 7.23178
lowerback -1.75794 -3.15439 1.74635
upperback -7.96685 -4.0862 1.48947
thorax -7.3404 -2.07898 0.775676
lowerneck -12.0079 5.33562 8.04646
upperneck 30.4029 11.0636 -15.9679
head 13.7223 3.97362 -6.05765
rclavicle 2.71341e-014 -3.18055e-015
rhumerus 24.7244 17.3191 -58.009
rradius 125.706
rwrist -21.059
rhand -29.4285 4.75208
rfingers 7.12502
rthumb -2.7655 -25.2097
lclavicle 2.71341e-014 -3.18055e-015
lhumerus 3.32589 -19.4711 76.1302
lradius 135.8
lwrist 1.09377
lhand -24.9223 -8.19378
lfingers 7.12502
lthumb 1.58657 21.7801
rfemur -61.5118 -16.3498 15.503
rtibia 62.1326
rfoot -16.3718 -14.8873
rtoes 12.1298
lfemur -181.389 194.859 -193.079
ltibia 22.9872
lfoot -29.3601 22.5765
ltoes -14.2623
1799
root 2.15807 14.3505 -0.437916 19.5975 15.5713 7.13048
lowerback -1.69895 -3.02521 1.74443
upperback -7.92439 -3.90102 1.63306
thorax -7.31702 -1.98022 0.918849
lowerneck -12.0828 5.02565 7.85161
upperneck 30.4846 10.5803 -15.733
head 13.6586 3.76165 -6.00534
rclavicle -2.94698e-014 -4.45278e-014
rhumerus 24.6195 16.8454 -58.1286
rradius 125.681
rwrist -21.0141
rhand -29.3291 4.5654
rfingers 7.12502
rthumb -2.6695 -25.3976
lclavicle -2.94698e-014 -4.45278e-014
lhumerus 3.64697 -20.0834 76.4916
lradius 135.658
lwrist 1.18198
lhand -24.561 -8.03511
lfingers 7.12502
lthumb 1.93558 21.9359
rfemur -61.3755 -16.9306 15.4165
rtibia 61.8554
rfoot -15.9643 -14.773
rtoes 12.0468
lfemur -181.541 195.099 -193.206
ltibia 22.9932
lfoot -30.1371 22.9073
ltoes -13.885
1800
root 2.21696 14.3467 -0.511573 19.4759 16.0282 7.09114
lowerback -1.6533 -2.90734 1.66432
upperback -7.89465 -3.73423 1.76301
thorax -7.29627 -1.88625 1.09163
lowerneck -12.1201 4.72353 7.67348
upperneck 30.5586 10.1049 -15.4977
head 13.5884 3.55701 -5.95376
rclavicle -1.1778e-014 -3.49861e-014
rhumerus 24.487 16.4194 -58.2824
rradius 125.668
rwrist -20.9706
rhand -29.1906 4.4026
rfingers 7.12502
rthumb -2.53574 -25.5621
lclavicle -1.1778e-014 -3.49861e-014
lhumerus 3.9239 -20.6608 76.8272
lradius 135.533
lwrist 1.22853
lhand -24.133 -7.88287
lfingers 7.12502
lthumb 2.34888 22.0839
rfemur -61.2444 -17.5097 15.2548
rtibia 61.5872
rfoot -15.5523 -14.6458
rtoes 11.9437
lfemur -181.691 195.305 -193.401
ltibia 22.9741
lfoot -30.8323 23.2635
ltoes -13.4206
1801
root 2.27485 14.3436 -0.584292 19.3786 16.463 7.10407
lowerback -1.6285 -2.80111 1.51864
upperback -7.87974 -3.58603 1.87946
thorax -7.27733 -1.79798 1.28703
lowerneck -12.1233 4.4296 7.51228
upperneck 30.6291 9.63667 -15.2566
head 13.5138 3.35958 -5.90105
rclavicle 6.43068e-014 7.95139e-015
rhumerus 24.3149 16.0387 -58.4737
rradius 125.666
rwrist -20.912
rhand -29.0175 4.22842
rfingers 7.12502
rthumb -2.36863 -25.7382
lclavicle 6.43068e-014 7.95139e-015
lhumerus 4.16661 -21.2161 77.1313
lradius 135.422
lwrist 1.2538
lhand -23.6562 -7.74523
lfingers 7.12502
lthumb 2.8094 22.216
rfemur -61.1206 -18.0798 15.0291
rtibia 61.3233
rfoot -15.1374 -14.5143
rtoes 11.8247
lfemur -181.846 195.502 -193.65
ltibia 22.9326
lfoot -31.4793 23.6494
ltoes -12.8049
1802
root 2.33155 14.3418 -0.655851 19.3083 16.8884 7.16123
lowerback -1.63406 -2.70941 1.31996
upperback -7.87727 -3.46006 1.98444
thorax -7.25295 -1.71796 1.49988
lowerneck -12.0898 4.14263 7.35753
upperneck 30.6888 9.17143 -14.9985
head 13.4288 3.16772 -5.84056
rclavicle -3.45388e-014 9.54166e-015
rhumerus 24.1021 15.6956 -58.6977
rradius 125.681
rwrist -20.8346
rhand -28.8137 4.05819
rfingers 7.12502
rthumb -2.17179 -25.9105
lclavicle -3.45388e-014 9.54166e-015
lhumerus 4.3789 -21.76 77.4016
lradius 135.325
lwrist 1.28607
lhand -23.1512 -7.62409
lfingers 7.12502
lthumb 3.29711 22.3302
rfemur -60.9966 -18.6398 14.7467
rtibia 61.0558
rfoot -14.7163 -14.3834
rtoes 11.6679
lfemur -182.016 195.697 -193.939
ltibia 22.8749
lfoot -32.0778 24.0542
ltoes -12.0521
1803
root 2.38731 14.3419 -0.725956 19.2586 17.3193 7.24697
lowerback -1.67171 -2.63352 1.09467
upperback -7.88072 -3.35727 2.07865
thorax -7.21663 -1.64833 1.71612
lowerneck -12.0332 3.86385 7.20903
upperneck 30.739 8.71005 -14.7208
head 13.3374 2.98138 -5.77109
rclavicle -2.48481e-015 3.18055e-014
rhumerus 23.8604 15.3824 -58.9486
rradius 125.709
rwrist -20.7233
rhand -28.6081 3.95067
rfingers 7.12502
rthumb -1.97326 -26.02
lclavicle -2.48481e-015 3.18055e-014
lhumerus 4.57613 -22.3049 77.6317
lradius 135.245
lwrist 1.34228
lhand -22.6384 -7.51149
lfingers 7.12502
lthumb 3.79231 22.4345
rfemur -60.855 -19.1936 14.4191
rtibia 60.7773
rfoot -14.2871 -14.2494
rtoes 11.4341
lfemur -182.2 195.897 -194.249
ltibia 22.8081
lfoot -32.6249 24.4742
ltoes -11.2007
1804
root 2.44181 14.3439 -0.794875 19.2254 17.7606 7.34607
lowerback -1.73026 -2.5677 0.861124
upperback -7.88641 -3.26919 2.1599
thorax -7.17198 -1.58613 1.92338
lowerneck -11.9854 3.59015 7.06462
upperneck 30.792 8.24557 -14.4128
head 13.2503 2.79688 -5.68971
rclavicle 2.90226e-014 3.18055e-014
rhumerus 23.588 15.0784 -59.2208
rradius 125.75
rwrist -20.5571
rhand -28.418 3.88367
rfingers 7.12502
rthumb -1.7896 -26.0886
lclavicle 2.90226e-014 3.18055e-014
lhumerus 4.78346 -22.8655 77.8149
lradius 135.177
lwrist 1.45356
lhand -22.1271 -7.40242
lfingers 7.12502
lthumb 4.28608 22.5342
rfemur -60.6866 -19.724 14.0539
rtibia 60.4813
rfoot -13.8485 -14.1213
rtoes 11.0864
lfemur -182.403 196.095 -194.557
ltibia 22.7394
lfoot -33.1235 24.8842
ltoes -10.2517
1805
root 2.49519 14.3478 -0.862697 19.2014 18.2185 7.45277
lowerback -1.8005 -2.51255 0.631038
upperback -7.89 -3.19621 2.22735
thorax -7.12008 -1.53236 2.11463
lowerneck -11.9582 3.3217 6.92859
upperneck 30.848 7.77789 -14.078
head 13.1709 2.61389 -5.59892
rclavicle 5.64051e-015 1.59028e-015
rhumerus 23.2941 14.7749 -59.5086
rradius 125.806
rwrist -20.3395
rhand -28.2638 3.87984
rfingers 7.12502
rthumb -1.64071 -26.0936
lclavicle 5.64051e-015 1.59028e-015
lhumerus 5.01175 -23.4446 77.9464
lradius 135.118
lwrist 1.61628
lhand -21.6337 -7.28421
lfingers 7.12502
lthumb 4.76251 22.6423
rfemur -60.4769 -20.2296 13.6484
rtibia 60.1667
rfoot -13.4047 -13.9934
rtoes 10.6129
lfemur -182.622 196.282 -194.855
ltibia 22.6728
lfoot -33.558 25.2635
ltoes -9.25484
1806
root 2.54748 14.3534 -0.929636 19.1801 18.6943 7.55462
lowerback -1.87457 -2.46471 0.420287
upperback -7.887 -3.13327 2.28116
thorax -7.0613 -1.48553 2.28115
lowerneck -11.972 3.05807 6.79606
upperneck 30.912 7.30499 -13.7087
head 13.1052 2.43113 -5.49553
rclavicle 5.15598e-014 1.43125e-014
rhumerus 22.9865 14.4612 -59.8047
rradius 125.879
rwrist -20.0683
rhand -28.1443 3.92127
rfingers 7.12502
rthumb -1.52523 -26.053
lclavicle 5.15598e-014 1.43125e-014
lhumerus 5.27663 -24.0409 78.0249
lradius 135.064
lwrist 1.81957
lhand -21.1627 -7.14432
lfingers 7.12502
lthumb 5.21723 22.7715
rfemur -60.2166 -20.6996 13.2063
rtibia 59.8335
rfoot -12.9604 -13.8607
rtoes 10.0066
lfemur -182.86 196.431 -195.127
ltibia 22.6136
lfoot -33.8909 25.6118
ltoes -8.33002
1807
root 2.59863 14.3602 -0.995907 19.1548 19.1861 7.64549
lowerback -1.9413 -2.42391 0.234746
upperback -7.87852 -3.07964 2.32374
thorax -7.00322 -1.44548 2.42275
lowerneck -12.021 2.80104 6.67301
upperneck 30.9807 6.83139 -13.3163
head 13.0523 2.25056 -5.38474
rclavicle 1.32937e-014 1.59028e-015
rhumerus 22.6731 14.1394 -60.1048
rradius 125.969
rwrist -19.7504
rhand -28.0773 4.00409
rfingers 7.12502
rthumb -1.46059 -25.9707
lclavicle 1.32937e-014 1.59028e-015
lhumerus 5.57259 -24.6402 78.057
lradius 135.018
lwrist 2.0581
lhand -20.6979 -6.98087
lfingers 7.12502
lthumb 5.66607 22.9234
rfemur -59.8945 -21.1185 12.7202
rtibia 59.4848
rfoot -12.527 -13.7179
rtoes 9.27981
lfemur -183.112 196.534 -195.362
ltibia 22.5643
lfoot -34.111 25.9143
ltoes -7.53063
1808
root 2.64877 14.3678 -1.06161 19.1219 19.6883 7.72309
lowerback -1.99876 -2.39011 0.0776359
upperback -7.87023 -3.03493 2.35786
thorax -6.95282 -1.41198 2.54072
lowerneck -12.0756 2.54891 6.55283
upperneck 31.0462 6.35798 -12.9057
head 13.0024 2.07262 -5.26692
rclavicle -1.65737e-014 -1.59028e-015
rhumerus 22.354 13.8212 -60.4048
rradius 126.08
rwrist -19.3953
rhand -28.0492 4.11563
rfingers 7.12502
rthumb -1.43341 -25.8593
lclavicle -1.65737e-014 -1.59028e-015
lhumerus 5.87674 -25.2343 78.0579
lradius 134.974
lwrist 2.27984
lhand -20.256 -6.79729
lfingers 7.12502
lthumb 6.0927 23.0951
rfemur -59.508 -21.4771 12.1859
rtibia 59.1231
rfoot -12.1102 -13.5616
rtoes 8.42401
lfemur -183.373 196.571 -195.561
ltibia 22.5264
lfoot -34.2295 26.1383
ltoes -6.85147
1809
root 2.69782 14.3758 -1.12677 19.0785 20.1933 7.77801
lowerback -2.04362 -2.3585 -0.0440064
upperback -7.86252 -2.99257 2.38389
thorax -6.91284 -1.38213 2.63142
lowerneck -12.1431 2.30157 6.44152
upperneck 31.1142 5.88567 -12.4835
head 12.9603 1.89743 -5.1463
rclavicle 6.83322e-015 -2.22639e-014
rhumerus 22.036 13.5023 -60.7041
rradius 126.21
rwrist -19.0041
rhand -28.0456 4.24149
rfingers 7.12502
rthumb -1.42999 -25.7335
lclavicle 6.83322e-015 -2.22639e-014
lhumerus 6.19516 -25.8085 78.0338
lradius 134.934
lwrist 2.48279
lhand -19.7989 -6.60601
lfingers 7.12502
lthumb 6.53397 23.2732
rfemur -59.0607 -21.758 11.6098
rtibia 58.7509
rfoot -11.7159 -13.3826
rtoes 7.42989
lfemur -183.638 196.549 -195.715
ltibia 22.4992
lfoot -34.2585 26.2795
ltoes -6.31036
